<svg width="515" height="558" viewBox="0 0 515 558" fill="none" xmlns="http://www.w3.org/2000/svg">
<path d="M228.563 228.667C258.886 228.667 287.967 216.621 309.409 195.179C330.85 173.738 342.896 144.656 342.896 114.333C342.896 84.0102 330.85 54.9291 309.409 33.4875C287.967 12.0458 258.886 0 228.563 0C198.24 0 169.159 12.0458 147.717 33.4875C126.275 54.9291 114.229 84.0102 114.229 114.333C114.229 144.656 126.275 173.738 147.717 195.179C169.159 216.621 198.24 228.667 228.563 228.667ZM42.7712 314.417C61.7231 314.417 79.8988 306.888 93.2998 293.487C106.701 280.086 114.229 261.91 114.229 242.958C114.229 224.006 106.701 205.831 93.2998 192.43C79.8988 179.029 61.7231 171.5 42.7712 171.5C23.8192 171.5 5.64353 179.029 -7.75751 192.43C-21.1585 205.831 -28.6872 224.006 -28.6872 242.958C-28.6872 261.91 -21.1585 280.086 -7.75751 293.487C5.64353 306.888 23.8192 314.417 42.7712 314.417ZM485.813 242.958C485.813 261.91 478.284 280.086 464.883 293.487C451.482 306.888 433.306 314.417 414.354 314.417C395.403 314.417 377.227 306.888 363.826 293.487C350.425 280.086 342.896 261.91 342.896 242.958C342.896 224.006 350.425 205.831 363.826 192.43C377.227 179.029 395.403 171.5 414.354 171.5C433.306 171.5 451.482 179.029 464.883 192.43C478.284 205.831 485.813 224.006 485.813 242.958ZM228.563 257.25C266.467 257.25 302.818 272.307 329.62 299.109C356.422 325.911 371.479 362.263 371.479 400.167V571.667H85.6462V400.167C85.6462 362.263 100.703 325.911 127.505 299.109C154.308 272.307 190.659 257.25 228.563 257.25ZM28.4795 400.167C28.4795 380.358 31.3378 361.236 36.7115 343.172L31.8523 343.572C7.35295 346.262 -15.2912 357.901 -31.7381 376.257C-48.185 394.613 -57.2769 418.395 -57.2705 443.042V571.667H28.4795V400.167ZM514.396 571.667V443.042C514.399 417.556 504.676 393.03 487.21 374.47C469.744 355.91 445.853 344.715 420.414 343.172C425.759 361.236 428.646 380.358 428.646 400.167V571.667H514.396Z" fill="#A6A6A6"/>
</svg>
