<svg width="600" height="648" viewBox="0 0 600 648" fill="none" xmlns="http://www.w3.org/2000/svg">
<path opacity="0.5" d="M299.644 0C302.675 3.64922e-05 305.677 0.600448 308.478 1.7666C311.278 2.93271 313.821 4.64186 315.962 6.7959L437.94 129.261V69.4395C437.941 63.3045 440.369 57.4211 444.691 53.083C449.014 48.7449 454.876 46.3067 460.989 46.3066H507.089C513.202 46.3067 519.064 48.7448 523.387 53.083C527.709 57.4211 530.138 63.3045 530.138 69.4395V221.792L592.556 284.39C594.695 286.542 596.39 289.096 597.545 291.906C598.7 294.716 599.292 297.728 599.286 300.768V624.626C599.286 630.761 596.858 636.645 592.535 640.983C588.213 645.321 582.35 647.759 576.237 647.759H368.792C362.679 647.759 356.816 645.322 352.493 640.983C348.171 636.645 345.742 630.761 345.742 624.626V439.563H253.544V624.626C253.544 630.761 251.116 636.645 246.793 640.983C242.47 645.321 236.608 647.759 230.495 647.759H23.0498C16.9368 647.759 11.0736 645.322 6.75101 640.983C2.42844 636.645 8.7392e-05 630.761 3.67521e-05 624.626V300.768C-0.00537273 297.728 0.586431 294.716 1.74125 291.906C2.89607 289.096 4.59152 286.542 6.73051 284.39L283.324 6.7959C285.465 4.64173 288.009 2.93275 290.81 1.7666C293.61 0.60052 296.612 0 299.644 0ZM46.0987 310.345V601.493H207.445V416.431C207.445 410.296 209.874 404.411 214.196 400.073C218.519 395.735 224.382 393.298 230.495 393.298H368.792C374.905 393.298 380.767 395.735 385.09 400.073C389.412 404.411 391.841 410.296 391.841 416.431V601.493H553.188V310.345L299.644 55.8838L46.0987 310.345Z" fill="#091638"/>
</svg>
